<mxfile host="www.draw.io" modified="2020-02-16T00:52:02.616Z" agent="Mozilla/5.0 (Windows NT 10.0; Win64; x64; rv:72.0) Gecko/20100101 Firefox/72.0" etag="yb2r-ww-PQW5WExy9Uhm" version="12.7.0" type="github" pages="4">
  <diagram id="AOQPVbwdmGProStwQBQa" name="3.1: Display Staff Selection Screen">
    <mxGraphModel dx="813" dy="452" grid="1" gridSize="10" guides="1" tooltips="1" connect="1" arrows="1" fold="1" page="1" pageScale="1" pageWidth="850" pageHeight="1100" math="0" shadow="0">
      <root>
        <mxCell id="0"/>
        <mxCell id="1" parent="0"/>
        <mxCell id="Hv11AW71qAlD6HT5tGcr-1" value="3.1&lt;br&gt;Display Staff Selection Screen" style="whiteSpace=wrap;html=1;aspect=fixed;" parent="1" vertex="1">
          <mxGeometry x="350" y="50" width="80" height="80" as="geometry"/>
        </mxCell>
        <mxCell id="Hv11AW71qAlD6HT5tGcr-3" value="3.1.3&lt;br&gt;Display Search Box for Staff Selection" style="whiteSpace=wrap;html=1;aspect=fixed;" parent="1" vertex="1">
          <mxGeometry x="480" y="250" width="80" height="80" as="geometry"/>
        </mxCell>
        <mxCell id="Hv11AW71qAlD6HT5tGcr-5" value="" style="endArrow=classic;html=1;exitX=0.75;exitY=1;exitDx=0;exitDy=0;strokeWidth=2;entryX=0.5;entryY=0;entryDx=0;entryDy=0;" parent="1" source="Hv11AW71qAlD6HT5tGcr-1" target="Hv11AW71qAlD6HT5tGcr-3" edge="1">
          <mxGeometry width="50" height="50" relative="1" as="geometry">
            <mxPoint x="490" y="220" as="sourcePoint"/>
            <mxPoint x="515" y="250" as="targetPoint"/>
          </mxGeometry>
        </mxCell>
        <mxCell id="_o22Fg56pnyV5hizzAUF-1" value="" style="endArrow=classic;html=1;" edge="1" parent="1">
          <mxGeometry width="50" height="50" relative="1" as="geometry">
            <mxPoint x="436" y="540" as="sourcePoint"/>
            <mxPoint x="436" y="540" as="targetPoint"/>
          </mxGeometry>
        </mxCell>
        <mxCell id="_o22Fg56pnyV5hizzAUF-2" value="" style="endArrow=classic;html=1;exitX=0;exitY=1;exitDx=0;exitDy=0;entryX=0.5;entryY=0;entryDx=0;entryDy=0;strokeWidth=2;" edge="1" parent="1" source="_o22Fg56pnyV5hizzAUF-7" target="_o22Fg56pnyV5hizzAUF-6">
          <mxGeometry width="50" height="50" relative="1" as="geometry">
            <mxPoint x="306" y="380" as="sourcePoint"/>
            <mxPoint x="236" y="440" as="targetPoint"/>
          </mxGeometry>
        </mxCell>
        <mxCell id="_o22Fg56pnyV5hizzAUF-3" value="" style="endArrow=classic;html=1;strokeWidth=2;entryX=0.5;entryY=0;entryDx=0;entryDy=0;exitX=1;exitY=1;exitDx=0;exitDy=0;" edge="1" parent="1" source="_o22Fg56pnyV5hizzAUF-7" target="_o22Fg56pnyV5hizzAUF-5">
          <mxGeometry width="50" height="50" relative="1" as="geometry">
            <mxPoint x="226" y="350" as="sourcePoint"/>
            <mxPoint x="126" y="440" as="targetPoint"/>
          </mxGeometry>
        </mxCell>
        <mxCell id="_o22Fg56pnyV5hizzAUF-4" value="&lt;div&gt;&lt;span style=&quot;white-space: normal&quot;&gt;&lt;/span&gt;&lt;span style=&quot;white-space: normal&quot;&gt;&lt;/span&gt;1.1.3&lt;br&gt;&lt;/div&gt;&lt;div&gt;Comfirm User&lt;/div&gt;" style="shape=process;whiteSpace=wrap;html=1;backgroundOutline=1;" vertex="1" parent="1">
          <mxGeometry x="231" y="240" width="90" height="80" as="geometry"/>
        </mxCell>
        <mxCell id="_o22Fg56pnyV5hizzAUF-5" value="&lt;div&gt;1.1.4.2&lt;br&gt;&lt;/div&gt;&lt;div&gt;Deny Access&lt;/div&gt;" style="shape=process;whiteSpace=wrap;html=1;backgroundOutline=1;" vertex="1" parent="1">
          <mxGeometry x="361" y="514" width="90" height="80" as="geometry"/>
        </mxCell>
        <mxCell id="_o22Fg56pnyV5hizzAUF-6" value="1.1.4.1&lt;div&gt;Allow Access&lt;/div&gt;" style="shape=process;whiteSpace=wrap;html=1;backgroundOutline=1;" vertex="1" parent="1">
          <mxGeometry x="256" y="514" width="90" height="80" as="geometry"/>
        </mxCell>
        <mxCell id="_o22Fg56pnyV5hizzAUF-7" value="" style="rhombus;whiteSpace=wrap;html=1;fillColor=#FFFFFF;" vertex="1" parent="1">
          <mxGeometry x="266" y="305" width="20" height="30" as="geometry"/>
        </mxCell>
        <mxCell id="_o22Fg56pnyV5hizzAUF-8" value="" style="endArrow=classic;html=1;" edge="1" parent="1">
          <mxGeometry width="50" height="50" relative="1" as="geometry">
            <mxPoint x="331" y="559" as="sourcePoint"/>
            <mxPoint x="331" y="559" as="targetPoint"/>
          </mxGeometry>
        </mxCell>
        <mxCell id="_o22Fg56pnyV5hizzAUF-9" value="" style="endArrow=classic;html=1;exitX=0;exitY=1;exitDx=0;exitDy=0;entryX=0.5;entryY=0;entryDx=0;entryDy=0;strokeWidth=2;" edge="1" parent="1" target="_o22Fg56pnyV5hizzAUF-4" source="Hv11AW71qAlD6HT5tGcr-1">
          <mxGeometry width="50" height="50" relative="1" as="geometry">
            <mxPoint x="216" y="150" as="sourcePoint"/>
            <mxPoint x="211" y="270" as="targetPoint"/>
          </mxGeometry>
        </mxCell>
        <mxCell id="_o22Fg56pnyV5hizzAUF-10" value="" style="endArrow=classic;html=1;exitX=0.5;exitY=1;exitDx=0;exitDy=0;" edge="1" parent="1" source="_o22Fg56pnyV5hizzAUF-11">
          <mxGeometry width="50" height="50" relative="1" as="geometry">
            <mxPoint x="276" y="372" as="sourcePoint"/>
            <mxPoint x="276" y="430" as="targetPoint"/>
          </mxGeometry>
        </mxCell>
        <mxCell id="_o22Fg56pnyV5hizzAUF-11" value="" style="ellipse;whiteSpace=wrap;html=1;aspect=fixed;" vertex="1" parent="1">
          <mxGeometry x="268" y="369" width="10" height="10" as="geometry"/>
        </mxCell>
        <mxCell id="_o22Fg56pnyV5hizzAUF-12" value="&lt;div style=&quot;font-size: 6px;&quot;&gt;Incorrect&lt;/div&gt;&lt;div style=&quot;font-size: 6px;&quot;&gt;Authentication token&lt;br style=&quot;font-size: 6px;&quot;&gt; &lt;/div&gt;" style="text;html=1;strokeColor=none;fillColor=none;align=center;verticalAlign=middle;whiteSpace=wrap;rounded=0;fontSize=6;" vertex="1" parent="1">
          <mxGeometry x="336" y="372" width="40" height="20" as="geometry"/>
        </mxCell>
        <mxCell id="_o22Fg56pnyV5hizzAUF-13" value="" style="endArrow=classic;html=1;exitX=0.5;exitY=1;exitDx=0;exitDy=0;" edge="1" parent="1" source="_o22Fg56pnyV5hizzAUF-14">
          <mxGeometry width="50" height="50" relative="1" as="geometry">
            <mxPoint x="359" y="369.5" as="sourcePoint"/>
            <mxPoint x="359" y="427.5" as="targetPoint"/>
          </mxGeometry>
        </mxCell>
        <mxCell id="_o22Fg56pnyV5hizzAUF-14" value="" style="ellipse;whiteSpace=wrap;html=1;aspect=fixed;" vertex="1" parent="1">
          <mxGeometry x="321" y="369" width="10" height="10" as="geometry"/>
        </mxCell>
        <mxCell id="_o22Fg56pnyV5hizzAUF-15" value="&lt;div style=&quot;font-size: 6px&quot;&gt;correct&lt;/div&gt;&lt;div style=&quot;font-size: 6px&quot;&gt;Authentication token&lt;br style=&quot;font-size: 6px&quot;&gt; &lt;/div&gt;" style="text;html=1;strokeColor=none;fillColor=none;align=center;verticalAlign=middle;whiteSpace=wrap;rounded=0;fontSize=6;" vertex="1" parent="1">
          <mxGeometry x="236" y="349" width="40" height="20" as="geometry"/>
        </mxCell>
        <mxCell id="_o22Fg56pnyV5hizzAUF-16" value="" style="endArrow=classic;html=1;exitX=0.5;exitY=0;exitDx=0;exitDy=0;" edge="1" parent="1" source="_o22Fg56pnyV5hizzAUF-17">
          <mxGeometry width="50" height="50" relative="1" as="geometry">
            <mxPoint x="314.5" y="442" as="sourcePoint"/>
            <mxPoint x="296" y="400" as="targetPoint"/>
          </mxGeometry>
        </mxCell>
        <mxCell id="_o22Fg56pnyV5hizzAUF-17" value="" style="ellipse;whiteSpace=wrap;html=1;aspect=fixed;fillColor=#000000;" vertex="1" parent="1">
          <mxGeometry x="296" y="442" width="10" height="10" as="geometry"/>
        </mxCell>
        <mxCell id="_o22Fg56pnyV5hizzAUF-18" value="" style="endArrow=classic;html=1;" edge="1" parent="1">
          <mxGeometry width="50" height="50" relative="1" as="geometry">
            <mxPoint x="346" y="452" as="sourcePoint"/>
            <mxPoint x="326" y="410" as="targetPoint"/>
          </mxGeometry>
        </mxCell>
        <mxCell id="_o22Fg56pnyV5hizzAUF-19" value="" style="ellipse;whiteSpace=wrap;html=1;aspect=fixed;fillColor=#000000;" vertex="1" parent="1">
          <mxGeometry x="341" y="444" width="10" height="10" as="geometry"/>
        </mxCell>
        <mxCell id="_o22Fg56pnyV5hizzAUF-20" value="Respones" style="text;html=1;strokeColor=none;fillColor=none;align=center;verticalAlign=middle;whiteSpace=wrap;rounded=0;fontSize=6;" vertex="1" parent="1">
          <mxGeometry x="306" y="442" width="40" height="20" as="geometry"/>
        </mxCell>
        <mxCell id="_o22Fg56pnyV5hizzAUF-21" value="" style="endArrow=classic;html=1;exitX=0.5;exitY=1;exitDx=0;exitDy=0;" edge="1" parent="1" source="_o22Fg56pnyV5hizzAUF-22">
          <mxGeometry width="50" height="50" relative="1" as="geometry">
            <mxPoint x="369" y="170.5" as="sourcePoint"/>
            <mxPoint x="300" y="220" as="targetPoint"/>
          </mxGeometry>
        </mxCell>
        <mxCell id="_o22Fg56pnyV5hizzAUF-22" value="" style="ellipse;whiteSpace=wrap;html=1;aspect=fixed;" vertex="1" parent="1">
          <mxGeometry x="331" y="170" width="10" height="10" as="geometry"/>
        </mxCell>
        <mxCell id="_o22Fg56pnyV5hizzAUF-23" value="&lt;div&gt;Pass &lt;br&gt;&lt;/div&gt;&lt;div&gt;Token for &lt;br&gt;&lt;/div&gt;&lt;div&gt;Validation&lt;br&gt;&lt;/div&gt;" style="text;html=1;strokeColor=none;fillColor=none;align=center;verticalAlign=middle;whiteSpace=wrap;rounded=0;fontSize=5;" vertex="1" parent="1">
          <mxGeometry x="336" y="160" width="40" height="20" as="geometry"/>
        </mxCell>
        <mxCell id="_o22Fg56pnyV5hizzAUF-24" value="" style="endArrow=classic;html=1;" edge="1" parent="1">
          <mxGeometry width="50" height="50" relative="1" as="geometry">
            <mxPoint x="245.25" y="218" as="sourcePoint"/>
            <mxPoint x="290" y="177" as="targetPoint"/>
          </mxGeometry>
        </mxCell>
        <mxCell id="_o22Fg56pnyV5hizzAUF-25" value="" style="ellipse;whiteSpace=wrap;html=1;aspect=fixed;fillColor=#000000;" vertex="1" parent="1">
          <mxGeometry x="240" y="213" width="10" height="10" as="geometry"/>
        </mxCell>
        <mxCell id="_o22Fg56pnyV5hizzAUF-26" value="&lt;div&gt;Token Validation response&lt;/div&gt;&lt;div&gt;&lt;br&gt;&lt;/div&gt;" style="text;html=1;strokeColor=none;fillColor=none;align=center;verticalAlign=middle;whiteSpace=wrap;rounded=0;fontSize=5;" vertex="1" parent="1">
          <mxGeometry x="231" y="165" width="40" height="20" as="geometry"/>
        </mxCell>
      </root>
    </mxGraphModel>
  </diagram>
  <diagram id="uRx9yT5OlaFVP7rzrflD" name="3.2: Display List of Matching Staff">
    <mxGraphModel dx="677" dy="377" grid="1" gridSize="10" guides="1" tooltips="1" connect="1" arrows="1" fold="1" page="1" pageScale="1" pageWidth="850" pageHeight="1100" math="0" shadow="0">
      <root>
        <mxCell id="iNQ8qK8WLhuCzOhexazH-0"/>
        <mxCell id="iNQ8qK8WLhuCzOhexazH-1" parent="iNQ8qK8WLhuCzOhexazH-0"/>
        <mxCell id="dLMJt2sHzCew3RYpaYHA-0" value="3.2&lt;br&gt;Display List of Matching Staff" style="whiteSpace=wrap;html=1;aspect=fixed;" parent="iNQ8qK8WLhuCzOhexazH-1" vertex="1">
          <mxGeometry x="355" y="50" width="80" height="80" as="geometry"/>
        </mxCell>
        <mxCell id="dLMJt2sHzCew3RYpaYHA-2" value="3.2.3&lt;br&gt;Display List of Staff Matching Search" style="whiteSpace=wrap;html=1;aspect=fixed;" parent="iNQ8qK8WLhuCzOhexazH-1" vertex="1">
          <mxGeometry x="470" y="250" width="80" height="80" as="geometry"/>
        </mxCell>
        <mxCell id="dLMJt2sHzCew3RYpaYHA-4" value="" style="endArrow=classic;html=1;exitX=0.75;exitY=1;exitDx=0;exitDy=0;strokeWidth=2;entryX=0.5;entryY=0;entryDx=0;entryDy=0;" parent="iNQ8qK8WLhuCzOhexazH-1" source="dLMJt2sHzCew3RYpaYHA-0" target="dLMJt2sHzCew3RYpaYHA-2" edge="1">
          <mxGeometry width="50" height="50" relative="1" as="geometry">
            <mxPoint x="490" y="220" as="sourcePoint"/>
            <mxPoint x="515" y="250" as="targetPoint"/>
          </mxGeometry>
        </mxCell>
        <mxCell id="dLMJt2sHzCew3RYpaYHA-16" value="" style="endArrow=classic;html=1;exitX=0.5;exitY=1;exitDx=0;exitDy=0;entryX=0.5;entryY=0;entryDx=0;entryDy=0;strokeWidth=2;" parent="iNQ8qK8WLhuCzOhexazH-1" source="dLMJt2sHzCew3RYpaYHA-0" target="dLMJt2sHzCew3RYpaYHA-21" edge="1">
          <mxGeometry width="50" height="50" relative="1" as="geometry">
            <mxPoint x="397.5" y="150" as="sourcePoint"/>
            <mxPoint x="390" y="250" as="targetPoint"/>
          </mxGeometry>
        </mxCell>
        <mxCell id="dLMJt2sHzCew3RYpaYHA-19" value="3.2.2.1&lt;br&gt;Retrieve Records for Staff that Match Search" style="shape=process;whiteSpace=wrap;html=1;backgroundOutline=1;" parent="iNQ8qK8WLhuCzOhexazH-1" vertex="1">
          <mxGeometry x="345" y="390" width="100" height="90" as="geometry"/>
        </mxCell>
        <mxCell id="dLMJt2sHzCew3RYpaYHA-20" value="" style="endArrow=classic;html=1;strokeWidth=2;entryX=0.5;entryY=0;entryDx=0;entryDy=0;exitX=0.5;exitY=1;exitDx=0;exitDy=0;" parent="iNQ8qK8WLhuCzOhexazH-1" source="dLMJt2sHzCew3RYpaYHA-21" target="dLMJt2sHzCew3RYpaYHA-19" edge="1">
          <mxGeometry width="50" height="50" relative="1" as="geometry">
            <mxPoint x="310" y="330" as="sourcePoint"/>
            <mxPoint x="415" y="422.5" as="targetPoint"/>
          </mxGeometry>
        </mxCell>
        <mxCell id="dLMJt2sHzCew3RYpaYHA-21" value="1.1.4&lt;br&gt;Get Required Information from Database" style="shape=process;whiteSpace=wrap;html=1;backgroundOutline=1;" parent="iNQ8qK8WLhuCzOhexazH-1" vertex="1">
          <mxGeometry x="350" y="250" width="90" height="90" as="geometry"/>
        </mxCell>
        <mxCell id="IPjnjILKu4jXwkV_p3qS-0" value="&lt;div&gt;1.1.1&lt;br&gt;&lt;/div&gt;&lt;div&gt;Connect to Databases&lt;/div&gt;&lt;div&gt;&lt;br&gt;&lt;/div&gt;" style="shape=process;whiteSpace=wrap;html=1;backgroundOutline=1;" vertex="1" parent="iNQ8qK8WLhuCzOhexazH-1">
          <mxGeometry x="190" y="230" width="90" height="80" as="geometry"/>
        </mxCell>
        <mxCell id="IPjnjILKu4jXwkV_p3qS-1" value="" style="endArrow=classic;html=1;exitX=0;exitY=1;exitDx=0;exitDy=0;entryX=0.5;entryY=0;entryDx=0;entryDy=0;strokeWidth=2;" edge="1" parent="iNQ8qK8WLhuCzOhexazH-1" target="IPjnjILKu4jXwkV_p3qS-0" source="dLMJt2sHzCew3RYpaYHA-0">
          <mxGeometry width="50" height="50" relative="1" as="geometry">
            <mxPoint x="350" y="140" as="sourcePoint"/>
            <mxPoint x="305" y="202.5" as="targetPoint"/>
          </mxGeometry>
        </mxCell>
        <mxCell id="IPjnjILKu4jXwkV_p3qS-2" value="" style="endArrow=classic;html=1;" edge="1" parent="iNQ8qK8WLhuCzOhexazH-1">
          <mxGeometry width="50" height="50" relative="1" as="geometry">
            <mxPoint x="280" y="170" as="sourcePoint"/>
            <mxPoint x="240" y="200" as="targetPoint"/>
          </mxGeometry>
        </mxCell>
        <mxCell id="IPjnjILKu4jXwkV_p3qS-3" value="" style="ellipse;whiteSpace=wrap;html=1;aspect=fixed;" vertex="1" parent="iNQ8qK8WLhuCzOhexazH-1">
          <mxGeometry x="272" y="167" width="10" height="10" as="geometry"/>
        </mxCell>
        <mxCell id="IPjnjILKu4jXwkV_p3qS-4" value="Database credentials" style="text;html=1;strokeColor=none;fillColor=none;align=center;verticalAlign=middle;whiteSpace=wrap;rounded=0;" vertex="1" parent="iNQ8qK8WLhuCzOhexazH-1">
          <mxGeometry x="215" y="155" width="40" height="20" as="geometry"/>
        </mxCell>
        <mxCell id="IPjnjILKu4jXwkV_p3qS-5" value="" style="ellipse;whiteSpace=wrap;html=1;aspect=fixed;fillColor=#000000;" vertex="1" parent="iNQ8qK8WLhuCzOhexazH-1">
          <mxGeometry x="266.75" y="213" width="10" height="10" as="geometry"/>
        </mxCell>
        <mxCell id="IPjnjILKu4jXwkV_p3qS-6" value="&lt;div style=&quot;font-size: 8px;&quot;&gt;Token &lt;br style=&quot;font-size: 8px;&quot;&gt;&lt;/div&gt;&lt;div style=&quot;font-size: 8px;&quot;&gt;Authenticated&lt;br style=&quot;font-size: 8px;&quot;&gt;&lt;/div&gt;" style="text;html=1;strokeColor=none;fillColor=none;align=center;verticalAlign=middle;whiteSpace=wrap;rounded=0;fontSize=8;" vertex="1" parent="iNQ8qK8WLhuCzOhexazH-1">
          <mxGeometry x="292" y="206" width="30" height="17" as="geometry"/>
        </mxCell>
        <mxCell id="IPjnjILKu4jXwkV_p3qS-7" value="" style="endArrow=classic;html=1;" edge="1" parent="iNQ8qK8WLhuCzOhexazH-1">
          <mxGeometry width="50" height="50" relative="1" as="geometry">
            <mxPoint x="276.75" y="213" as="sourcePoint"/>
            <mxPoint x="304.75" y="185" as="targetPoint"/>
          </mxGeometry>
        </mxCell>
        <mxCell id="J66rQ4aid_m-DCT49_4O-0" value="" style="endArrow=classic;html=1;" edge="1" parent="iNQ8qK8WLhuCzOhexazH-1">
          <mxGeometry width="50" height="50" relative="1" as="geometry">
            <mxPoint x="420" y="381" as="sourcePoint"/>
            <mxPoint x="420" y="345" as="targetPoint"/>
          </mxGeometry>
        </mxCell>
        <mxCell id="J66rQ4aid_m-DCT49_4O-4" value="&lt;div&gt;Record data is transfered&lt;br&gt;&lt;/div&gt;" style="text;html=1;strokeColor=none;fillColor=none;align=center;verticalAlign=middle;whiteSpace=wrap;rounded=0;fontSize=8;" vertex="1" parent="iNQ8qK8WLhuCzOhexazH-1">
          <mxGeometry x="405" y="206" width="30" height="17" as="geometry"/>
        </mxCell>
        <mxCell id="J66rQ4aid_m-DCT49_4O-5" value="" style="ellipse;whiteSpace=wrap;html=1;aspect=fixed;fillColor=#000000;" vertex="1" parent="iNQ8qK8WLhuCzOhexazH-1">
          <mxGeometry x="415" y="378" width="10" height="10" as="geometry"/>
        </mxCell>
        <mxCell id="jmuqS7ShGM4PABHnbOZf-0" value="" style="endArrow=classic;html=1;" edge="1" parent="iNQ8qK8WLhuCzOhexazH-1">
          <mxGeometry width="50" height="50" relative="1" as="geometry">
            <mxPoint x="374.76" y="350" as="sourcePoint"/>
            <mxPoint x="374.76" y="390" as="targetPoint"/>
          </mxGeometry>
        </mxCell>
        <mxCell id="jmuqS7ShGM4PABHnbOZf-1" value="" style="ellipse;whiteSpace=wrap;html=1;aspect=fixed;" vertex="1" parent="iNQ8qK8WLhuCzOhexazH-1">
          <mxGeometry x="370" y="345" width="10" height="10" as="geometry"/>
        </mxCell>
        <mxCell id="jmuqS7ShGM4PABHnbOZf-2" value="Search specifications" style="text;html=1;strokeColor=none;fillColor=none;align=center;verticalAlign=middle;whiteSpace=wrap;rounded=0;" vertex="1" parent="iNQ8qK8WLhuCzOhexazH-1">
          <mxGeometry x="305" y="345" width="40" height="20" as="geometry"/>
        </mxCell>
        <mxCell id="jmuqS7ShGM4PABHnbOZf-6" value="&lt;div style=&quot;font-size: 11px;&quot;&gt;Correct record &lt;br style=&quot;font-size: 11px;&quot;&gt;&lt;/div&gt;&lt;div style=&quot;font-size: 11px;&quot;&gt;is &lt;br style=&quot;font-size: 11px;&quot;&gt;&lt;/div&gt;&lt;div style=&quot;font-size: 11px;&quot;&gt;transfered&lt;br style=&quot;font-size: 11px;&quot;&gt;&lt;/div&gt;" style="text;html=1;strokeColor=none;fillColor=none;align=center;verticalAlign=middle;whiteSpace=wrap;rounded=0;fontSize=11;" vertex="1" parent="iNQ8qK8WLhuCzOhexazH-1">
          <mxGeometry x="445" y="355" width="40" height="20" as="geometry"/>
        </mxCell>
        <mxCell id="jmuqS7ShGM4PABHnbOZf-7" value="" style="endArrow=classic;html=1;" edge="1" parent="iNQ8qK8WLhuCzOhexazH-1">
          <mxGeometry width="50" height="50" relative="1" as="geometry">
            <mxPoint x="375" y="232.5" as="sourcePoint"/>
            <mxPoint x="375" y="196.5" as="targetPoint"/>
          </mxGeometry>
        </mxCell>
        <mxCell id="jmuqS7ShGM4PABHnbOZf-8" value="" style="ellipse;whiteSpace=wrap;html=1;aspect=fixed;fillColor=#000000;" vertex="1" parent="iNQ8qK8WLhuCzOhexazH-1">
          <mxGeometry x="370" y="229.5" width="10" height="10" as="geometry"/>
        </mxCell>
      </root>
    </mxGraphModel>
  </diagram>
  <diagram id="QZtixl9jGllo-7gINyNv" name="3.3: Retrieve Staff Information">
    <mxGraphModel dx="1422" dy="791" grid="1" gridSize="10" guides="1" tooltips="1" connect="1" arrows="1" fold="1" page="1" pageScale="1" pageWidth="850" pageHeight="1100" math="0" shadow="0">
      <root>
        <mxCell id="VxqvKUb7G6yoTwi6dMOY-0"/>
        <mxCell id="VxqvKUb7G6yoTwi6dMOY-1" parent="VxqvKUb7G6yoTwi6dMOY-0"/>
        <mxCell id="63xENn7qatLu0KMVKpuS-0" value="3.3&lt;br&gt;Retrieve Staff Information" style="whiteSpace=wrap;html=1;aspect=fixed;" parent="VxqvKUb7G6yoTwi6dMOY-1" vertex="1">
          <mxGeometry x="355" y="50" width="80" height="80" as="geometry"/>
        </mxCell>
        <mxCell id="63xENn7qatLu0KMVKpuS-1" value="3.3.2&lt;br&gt;Display Information of Selected Staff Member to be Edited" style="whiteSpace=wrap;html=1;aspect=fixed;" parent="VxqvKUb7G6yoTwi6dMOY-1" vertex="1">
          <mxGeometry x="410" y="250" width="90" height="90" as="geometry"/>
        </mxCell>
        <mxCell id="63xENn7qatLu0KMVKpuS-2" value="" style="endArrow=classic;html=1;exitX=0.75;exitY=1;exitDx=0;exitDy=0;strokeWidth=2;entryX=0.5;entryY=0;entryDx=0;entryDy=0;" parent="VxqvKUb7G6yoTwi6dMOY-1" source="63xENn7qatLu0KMVKpuS-0" target="63xENn7qatLu0KMVKpuS-1" edge="1">
          <mxGeometry width="50" height="50" relative="1" as="geometry">
            <mxPoint x="490" y="220" as="sourcePoint"/>
            <mxPoint x="515" y="250" as="targetPoint"/>
          </mxGeometry>
        </mxCell>
        <mxCell id="63xENn7qatLu0KMVKpuS-4" value="" style="endArrow=classic;html=1;exitX=0.25;exitY=1;exitDx=0;exitDy=0;entryX=0.5;entryY=0;entryDx=0;entryDy=0;strokeWidth=2;" parent="VxqvKUb7G6yoTwi6dMOY-1" source="63xENn7qatLu0KMVKpuS-0" target="63xENn7qatLu0KMVKpuS-7" edge="1">
          <mxGeometry width="50" height="50" relative="1" as="geometry">
            <mxPoint x="397.5" y="150" as="sourcePoint"/>
            <mxPoint x="390" y="250" as="targetPoint"/>
          </mxGeometry>
        </mxCell>
        <mxCell id="63xENn7qatLu0KMVKpuS-6" value="" style="endArrow=classic;html=1;strokeWidth=2;entryX=0.5;entryY=0;entryDx=0;entryDy=0;exitX=0.5;exitY=1;exitDx=0;exitDy=0;" parent="VxqvKUb7G6yoTwi6dMOY-1" source="63xENn7qatLu0KMVKpuS-7" target="9NGSPswtEbYDqO30jncx-0" edge="1">
          <mxGeometry width="50" height="50" relative="1" as="geometry">
            <mxPoint x="360" y="330" as="sourcePoint"/>
            <mxPoint x="325" y="400" as="targetPoint"/>
          </mxGeometry>
        </mxCell>
        <mxCell id="63xENn7qatLu0KMVKpuS-7" value="1.1.4&lt;br&gt;Get Required Information from Database" style="shape=process;whiteSpace=wrap;html=1;backgroundOutline=1;" parent="VxqvKUb7G6yoTwi6dMOY-1" vertex="1">
          <mxGeometry x="290" y="250" width="90" height="90" as="geometry"/>
        </mxCell>
        <mxCell id="9NGSPswtEbYDqO30jncx-0" value="3.3.1.1&lt;br&gt;Retrieve Record of Selected Staff Member" style="whiteSpace=wrap;html=1;aspect=fixed;" parent="VxqvKUb7G6yoTwi6dMOY-1" vertex="1">
          <mxGeometry x="240" y="390" width="80" height="80" as="geometry"/>
        </mxCell>
        <mxCell id="9NGSPswtEbYDqO30jncx-1" value="1.1.4.1&lt;br&gt;Retrieve User Type Information from User Type Table" style="shape=process;whiteSpace=wrap;html=1;backgroundOutline=1;" parent="VxqvKUb7G6yoTwi6dMOY-1" vertex="1">
          <mxGeometry x="345" y="390" width="100" height="90" as="geometry"/>
        </mxCell>
        <mxCell id="9NGSPswtEbYDqO30jncx-2" value="" style="endArrow=classic;html=1;strokeWidth=2;entryX=0.5;entryY=0;entryDx=0;entryDy=0;exitX=0.5;exitY=1;exitDx=0;exitDy=0;" parent="VxqvKUb7G6yoTwi6dMOY-1" source="63xENn7qatLu0KMVKpuS-7" target="9NGSPswtEbYDqO30jncx-1" edge="1">
          <mxGeometry width="50" height="50" relative="1" as="geometry">
            <mxPoint x="345" y="350" as="sourcePoint"/>
            <mxPoint x="260" y="400" as="targetPoint"/>
          </mxGeometry>
        </mxCell>
      </root>
    </mxGraphModel>
  </diagram>
  <diagram id="V8eBXQyPKRl3R5xpfu_6" name="3.4: Update Staff Record">
    <mxGraphModel dx="1422" dy="791" grid="1" gridSize="10" guides="1" tooltips="1" connect="1" arrows="1" fold="1" page="1" pageScale="1" pageWidth="850" pageHeight="1100" math="0" shadow="0">
      <root>
        <mxCell id="Snnv6ZvGX3xkhAON8tDr-0"/>
        <mxCell id="Snnv6ZvGX3xkhAON8tDr-1" parent="Snnv6ZvGX3xkhAON8tDr-0"/>
        <mxCell id="D8qDry6AxxUG877EeLYC-0" value="3.4&lt;br&gt;Update Staff Record" style="whiteSpace=wrap;html=1;aspect=fixed;" parent="Snnv6ZvGX3xkhAON8tDr-1" vertex="1">
          <mxGeometry x="420" y="70" width="80" height="80" as="geometry"/>
        </mxCell>
        <mxCell id="D8qDry6AxxUG877EeLYC-1" value="" style="endArrow=classic;html=1;exitX=0.25;exitY=1;exitDx=0;exitDy=0;entryX=0.5;entryY=0;entryDx=0;entryDy=0;strokeWidth=2;" parent="Snnv6ZvGX3xkhAON8tDr-1" source="D8qDry6AxxUG877EeLYC-0" target="D8qDry6AxxUG877EeLYC-2" edge="1">
          <mxGeometry width="50" height="50" relative="1" as="geometry">
            <mxPoint x="310" y="190" as="sourcePoint"/>
            <mxPoint x="160" y="270" as="targetPoint"/>
          </mxGeometry>
        </mxCell>
        <mxCell id="D8qDry6AxxUG877EeLYC-2" value="&lt;span style=&quot;white-space: normal&quot;&gt;1.2.1&lt;br&gt;&lt;/span&gt;Retrieve Submitted Form Data" style="shape=process;whiteSpace=wrap;html=1;backgroundOutline=1;" parent="Snnv6ZvGX3xkhAON8tDr-1" vertex="1">
          <mxGeometry x="290" y="270" width="90" height="80" as="geometry"/>
        </mxCell>
        <mxCell id="D8qDry6AxxUG877EeLYC-3" value="&lt;span style=&quot;white-space: normal&quot;&gt;1.2.2&lt;br&gt;&lt;/span&gt;Verify Submitted Form Data" style="shape=process;whiteSpace=wrap;html=1;backgroundOutline=1;" parent="Snnv6ZvGX3xkhAON8tDr-1" vertex="1">
          <mxGeometry x="415" y="270" width="90" height="80" as="geometry"/>
        </mxCell>
        <mxCell id="D8qDry6AxxUG877EeLYC-4" value="" style="endArrow=classic;html=1;exitX=0.5;exitY=1;exitDx=0;exitDy=0;entryX=0.5;entryY=0;entryDx=0;entryDy=0;strokeWidth=2;" parent="Snnv6ZvGX3xkhAON8tDr-1" source="D8qDry6AxxUG877EeLYC-0" target="D8qDry6AxxUG877EeLYC-3" edge="1">
          <mxGeometry width="50" height="50" relative="1" as="geometry">
            <mxPoint x="467.5" y="170" as="sourcePoint"/>
            <mxPoint x="262.5" y="290" as="targetPoint"/>
          </mxGeometry>
        </mxCell>
        <mxCell id="D8qDry6AxxUG877EeLYC-5" value="" style="endArrow=classic;html=1;strokeWidth=2;entryX=0.5;entryY=0;entryDx=0;entryDy=0;exitX=0.75;exitY=1;exitDx=0;exitDy=0;" parent="Snnv6ZvGX3xkhAON8tDr-1" source="D8qDry6AxxUG877EeLYC-0" target="D8qDry6AxxUG877EeLYC-6" edge="1">
          <mxGeometry width="50" height="50" relative="1" as="geometry">
            <mxPoint x="480" y="130" as="sourcePoint"/>
            <mxPoint x="560" y="270" as="targetPoint"/>
          </mxGeometry>
        </mxCell>
        <mxCell id="D8qDry6AxxUG877EeLYC-6" value="3.4.3&lt;br&gt;Update Staff Record with Submitted Form Data" style="whiteSpace=wrap;html=1;aspect=fixed;" parent="Snnv6ZvGX3xkhAON8tDr-1" vertex="1">
          <mxGeometry x="540" y="270" width="90" height="90" as="geometry"/>
        </mxCell>
        <mxCell id="D8qDry6AxxUG877EeLYC-7" value="" style="endArrow=classic;html=1;curved=1;" parent="Snnv6ZvGX3xkhAON8tDr-1" edge="1">
          <mxGeometry width="50" height="50" relative="1" as="geometry">
            <mxPoint x="455" y="149.9999999999999" as="sourcePoint"/>
            <mxPoint x="430" y="150" as="targetPoint"/>
            <Array as="points">
              <mxPoint x="490" y="160"/>
              <mxPoint x="470" y="180"/>
              <mxPoint x="410" y="180"/>
              <mxPoint x="400" y="160"/>
            </Array>
          </mxGeometry>
        </mxCell>
      </root>
    </mxGraphModel>
  </diagram>
</mxfile>
